<?xml version="1.0" encoding="utf-8" standalone="no"?>
<!DOCTYPE svg PUBLIC "-//W3C//DTD SVG 1.1//EN"
  "http://www.w3.org/Graphics/SVG/1.1/DTD/svg11.dtd">
<svg xmlns:xlink="http://www.w3.org/1999/xlink" width="516.111094pt" height="328.624687pt" viewBox="0 0 516.111094 328.624687" xmlns="http://www.w3.org/2000/svg" version="1.1">
 <metadata>
  <rdf:RDF xmlns:dc="http://purl.org/dc/elements/1.1/" xmlns:cc="http://creativecommons.org/ns#" xmlns:rdf="http://www.w3.org/1999/02/22-rdf-syntax-ns#">
   <cc:Work>
    <dc:type rdf:resource="http://purl.org/dc/dcmitype/StillImage"/>
    <dc:date>2025-11-20T13:45:55.811079</dc:date>
    <dc:format>image/svg+xml</dc:format>
    <dc:creator>
     <cc:Agent>
      <dc:title>Matplotlib v3.10.7, https://matplotlib.org/</dc:title>
     </cc:Agent>
    </dc:creator>
   </cc:Work>
  </rdf:RDF>
 </metadata>
 <defs>
  <style type="text/css">*{stroke-linejoin: round; stroke-linecap: butt}</style>
 </defs>
 <g id="figure_1">
  <g id="patch_1">
   <path d="M 0 328.624687 
L 516.111094 328.624687 
L 516.111094 0 
L 0 0 
z
" style="fill: #f9f4f5"/>
  </g>
  <g id="axes_1">
   <g id="patch_2">
    <path d="M 50.833125 284.4 
L 497.233125 284.4 
L 497.233125 7.2 
L 50.833125 7.2 
z
" style="fill: #f9f4f5"/>
   </g>
   <g id="FillBetweenPolyCollection_1">
    <defs>
     <path id="m36a4eaf9c5" d="M 140.113125 -321.424687 
L 140.113125 -44.224688 
L 497.233125 -44.224688 
L 497.233125 -321.424687 
L 497.233125 -321.424687 
L 140.113125 -321.424687 
z
"/>
    </defs>
    <g clip-path="url(#p4ba6998045)">
     <use xlink:href="#m36a4eaf9c5" x="0" y="328.624687" style="fill-opacity: 0.05"/>
    </g>
   </g>
   <g id="FillBetweenPolyCollection_2">
    <defs>
     <path id="m1b63526343" d="M 51.247386 -105.930799 
L 51.247386 -96.91881 
L 66.127386 -102.594678 
L 81.007386 -98.99885 
L 95.887386 -96.616648 
L 110.767386 -95.316813 
L 125.647386 -104.370607 
L 140.527386 -95.619408 
L 155.407386 -101.684945 
L 170.287386 -90.68129 
L 185.167386 -100.775212 
L 200.047386 -97.65591 
L 214.927386 -96.962997 
L 229.807386 -94.017411 
L 244.687386 -105.97347 
L 259.567386 -92.760896 
L 274.447386 -96.616215 
L 289.327386 -92.067767 
L 304.207386 -98.868671 
L 319.087386 -98.739359 
L 333.967386 -98.696038 
L 348.847386 -101.5539 
L 363.727386 -99.302094 
L 378.607386 -94.579713 
L 393.487386 -103.157629 
L 408.367386 -99.605555 
L 423.247386 -100.428863 
L 438.127386 -97.656343 
L 453.007386 -96.269867 
L 467.887386 -96.572678 
L 482.767386 -98.739359 
L 482.767386 -103.114958 
L 482.767386 -103.114958 
L 467.887386 -105.931882 
L 453.007386 -109.092988 
L 438.127386 -109.397315 
L 423.247386 -108.57314 
L 408.367386 -105.759249 
L 393.487386 -110.956208 
L 378.607386 -101.252172 
L 363.727386 -108.055026 
L 348.847386 -110.652963 
L 333.967386 -106.49505 
L 319.087386 -102.205225 
L 304.207386 -108.964326 
L 289.327386 -101.425887 
L 274.447386 -102.638432 
L 259.567386 -98.306369 
L 244.687386 -112.169185 
L 229.807386 -101.81534 
L 214.927386 -105.670875 
L 200.047386 -107.533662 
L 185.167386 -106.796995 
L 170.287386 -97.743418 
L 155.407386 -108.920572 
L 140.527386 -103.548598 
L 125.647386 -112.515534 
L 110.767386 -104.154437 
L 95.887386 -107.317492 
L 81.007386 -106.493967 
L 66.127386 -109.48309 
L 51.247386 -105.930799 
z
" style="stroke: #000000; stroke-opacity: 0.2"/>
    </defs>
    <g clip-path="url(#p4ba6998045)">
     <use xlink:href="#m1b63526343" x="0" y="328.624687" style="fill-opacity: 0.2; stroke: #000000; stroke-opacity: 0.2"/>
    </g>
   </g>
   <g id="line2d_1">
    <path d="M 51.247386 226.939526 
L 66.127386 222.650785 
L 81.007386 225.423304 
L 95.887386 225.986472 
L 110.767386 229.27884 
L 125.647386 220.398112 
L 140.527386 228.499069 
L 155.407386 223.387235 
L 170.287386 234.260711 
L 185.167386 224.903457 
L 200.047386 225.986472 
L 214.927386 227.502694 
L 229.807386 230.70842 
L 244.687386 219.618341 
L 259.567386 232.917772 
L 274.447386 229.408802 
L 289.327386 232.181321 
L 304.207386 224.600213 
L 319.087386 228.499069 
L 333.967386 226.203076 
L 348.847386 222.477502 
L 363.727386 224.860136 
L 378.607386 230.275214 
L 393.487386 221.307845 
L 408.367386 225.986472 
L 423.247386 223.820441 
L 438.127386 226.159755 
L 453.007386 224.860136 
L 467.887386 227.632656 
L 482.767386 227.979221 
" clip-path="url(#p4ba6998045)" style="fill: none; stroke: #000000; stroke-width: 1.5; stroke-linecap: square"/>
   </g>
   <g id="FillBetweenPolyCollection_3">
    <path d="M 51.247386 210.131125 
L 51.247386 216.846038 
L 66.127386 228.500585 
L 81.007386 226.636498 
L 95.887386 227.806155 
L 110.767386 223.734883 
L 125.647386 224.68837 
L 140.527386 233.871042 
L 155.407386 222.260899 
L 170.287386 216.8025 
L 185.167386 200.037636 
L 200.047386 171.402705 
L 214.927386 159.835882 
L 229.807386 125.786089 
L 244.687386 91.303956 
L 259.567386 79.779804 
L 274.447386 72.328224 
L 289.327386 72.631902 
L 304.207386 72.978467 
L 319.087386 72.28577 
L 333.967386 75.318213 
L 348.847386 81.469309 
L 363.727386 82.681853 
L 378.607386 89.050418 
L 393.487386 94.162034 
L 408.367386 94.681665 
L 423.247386 93.338943 
L 438.127386 91.172695 
L 453.007386 93.85879 
L 467.887386 98.797558 
L 482.767386 100.876731 
L 482.767386 93.251435 
L 482.767386 93.251435 
L 467.887386 90.652631 
L 453.007386 83.633824 
L 438.127386 85.713647 
L 423.247386 86.753342 
L 408.367386 87.706828 
L 393.487386 87.706395 
L 378.607386 81.943453 
L 363.727386 78.176075 
L 348.847386 76.096902 
L 333.967386 70.118439 
L 319.087386 66.219366 
L 304.207386 67.779559 
L 289.327386 64.876644 
L 274.447386 67.8662 
L 259.567386 73.801125 
L 244.687386 83.15643 
L 229.807386 118.290755 
L 214.927386 148.615191 
L 200.047386 162.044367 
L 185.167386 191.415966 
L 170.287386 205.754875 
L 155.407386 217.582055 
L 140.527386 224.512055 
L 125.647386 216.0654 
L 110.767386 214.549611 
L 95.887386 217.277944 
L 81.007386 220.700707 
L 66.127386 216.109371 
L 51.247386 210.131125 
z
" clip-path="url(#p4ba6998045)" style="fill: #f95838; fill-opacity: 0.2"/>
   </g>
   <g id="line2d_2">
    <path d="M 51.247386 213.683416 
L 66.127386 221.697731 
L 81.007386 223.517197 
L 95.887386 221.957655 
L 110.767386 219.185135 
L 125.647386 219.704982 
L 140.527386 229.192199 
L 155.407386 219.748303 
L 170.287386 211.647346 
L 185.167386 195.87864 
L 200.047386 166.637219 
L 214.927386 153.511071 
L 229.807386 121.627093 
L 244.687386 86.797312 
L 259.567386 76.660286 
L 274.447386 70.118872 
L 289.327386 68.862574 
L 304.207386 70.205514 
L 319.087386 69.209139 
L 333.967386 72.804751 
L 348.847386 78.912959 
L 363.727386 80.42918 
L 378.607386 86.190823 
L 393.487386 90.782809 
L 408.367386 91.345977 
L 423.247386 89.916397 
L 438.127386 88.616778 
L 453.007386 88.486816 
L 467.887386 94.465062 
L 482.767386 96.847696 
" clip-path="url(#p4ba6998045)" style="fill: none; stroke: #f95838; stroke-width: 1.5; stroke-linecap: square"/>
   </g>
   <g id="FillBetweenPolyCollection_4">
    <path d="M 51.247386 218.448251 
L 51.247386 224.428446 
L 66.127386 231.661907 
L 81.007386 233.958983 
L 95.887386 232.701169 
L 110.767386 230.44893 
L 125.647386 232.74449 
L 140.527386 230.405393 
L 155.407386 222.175557 
L 170.287386 217.584438 
L 185.167386 209.178937 
L 200.047386 190.031006 
L 214.927386 168.415531 
L 229.807386 130.551574 
L 244.687386 100.833627 
L 259.567386 88.876918 
L 274.447386 85.194666 
L 289.327386 84.025659 
L 304.207386 85.931766 
L 319.087386 87.360697 
L 333.967386 94.162468 
L 348.847386 96.891017 
L 363.727386 100.573487 
L 378.607386 104.992407 
L 393.487386 112.443121 
L 408.367386 107.505003 
L 423.247386 111.92414 
L 438.127386 113.960642 
L 453.007386 116.255335 
L 467.887386 118.768148 
L 482.767386 121.367169 
L 482.767386 114.392115 
L 482.767386 114.392115 
L 467.887386 113.829164 
L 453.007386 109.626847 
L 438.127386 103.344923 
L 423.247386 105.251681 
L 408.367386 100.659911 
L 393.487386 104.428372 
L 378.607386 98.147099 
L 363.727386 97.020979 
L 348.847386 91.778967 
L 333.967386 86.277031 
L 319.087386 81.945186 
L 304.207386 81.122094 
L 289.327386 77.352983 
L 274.447386 79.995758 
L 259.567386 84.371141 
L 244.687386 92.948407 
L 229.807386 124.442933 
L 214.927386 161.048643 
L 200.047386 183.791969 
L 185.167386 200.253589 
L 170.287386 209.177854 
L 155.407386 213.29223 
L 140.527386 220.742294 
L 125.647386 225.509512 
L 110.767386 220.094001 
L 95.887386 221.783506 
L 81.007386 225.726116 
L 66.127386 225.509512 
L 51.247386 218.448251 
z
" clip-path="url(#p4ba6998045)" style="fill: #007c35; fill-opacity: 0.2"/>
   </g>
   <g id="line2d_3">
    <path d="M 51.247386 221.091242 
L 66.127386 228.412427 
L 81.007386 229.885328 
L 95.887386 226.852885 
L 110.767386 224.946778 
L 125.647386 228.802313 
L 140.527386 225.856511 
L 155.407386 217.149065 
L 170.287386 213.29353 
L 185.167386 204.282841 
L 200.047386 186.694668 
L 214.927386 164.644471 
L 229.807386 126.868888 
L 244.687386 96.631093 
L 259.567386 86.494068 
L 274.447386 82.681853 
L 289.327386 80.342539 
L 304.207386 83.331662 
L 319.087386 84.58796 
L 333.967386 90.089679 
L 348.847386 94.681665 
L 363.727386 99.013728 
L 378.607386 101.656286 
L 393.487386 108.674226 
L 408.367386 104.342164 
L 423.247386 108.587585 
L 438.127386 108.457623 
L 453.007386 113.179571 
L 467.887386 116.385297 
L 482.767386 117.554954 
" clip-path="url(#p4ba6998045)" style="fill: none; stroke: #007c35; stroke-width: 1.5; stroke-linecap: square"/>
   </g>
   <g id="FillBetweenPolyCollection_5">
    <path d="M 51.247386 231.35693 
L 51.247386 239.936363 
L 66.127386 242.708666 
L 81.007386 239.589581 
L 95.887386 243.834786 
L 110.767386 239.936146 
L 125.647386 242.407154 
L 140.527386 248.513413 
L 155.407386 246.694163 
L 170.287386 247.083832 
L 185.167386 246.130562 
L 200.047386 235.733829 
L 214.927386 219.835377 
L 229.807386 197.265983 
L 244.687386 185.698727 
L 259.567386 168.890758 
L 274.447386 165.294497 
L 289.327386 163.735171 
L 304.207386 165.684382 
L 319.087386 166.89736 
L 333.967386 175.431522 
L 348.847386 175.691446 
L 363.727386 179.591169 
L 378.607386 184.096297 
L 393.487386 184.52907 
L 408.367386 181.279807 
L 423.247386 184.312467 
L 438.127386 195.403846 
L 453.007386 187.7779 
L 467.887386 194.753603 
L 482.767386 192.153499 
L 482.767386 185.048267 
L 482.767386 185.048267 
L 467.887386 183.531179 
L 453.007386 178.939843 
L 438.127386 182.232644 
L 423.247386 179.89268 
L 408.367386 176.471001 
L 393.487386 176.080249 
L 378.607386 175.560835 
L 363.727386 171.055923 
L 348.847386 167.935755 
L 333.967386 166.073402 
L 319.087386 159.229393 
L 304.207386 154.940002 
L 289.327386 155.633132 
L 274.447386 158.492293 
L 259.567386 162.824788 
L 244.687386 173.568519 
L 229.807386 188.773191 
L 214.927386 216.542577 
L 200.047386 228.063696 
L 185.167386 238.505699 
L 170.287386 239.848638 
L 155.407386 239.67449 
L 140.527386 242.96794 
L 125.647386 231.443788 
L 110.767386 233.826855 
L 95.887386 237.812786 
L 81.007386 231.531079 
L 66.127386 234.389157 
L 51.247386 231.35693 
z
" clip-path="url(#p4ba6998045)" style="fill: #ffce02; fill-opacity: 0.2"/>
   </g>
   <g id="line2d_4">
    <path d="M 51.247386 234.910521 
L 66.127386 238.33285 
L 81.007386 235.430368 
L 95.887386 241.062049 
L 110.767386 236.729987 
L 125.647386 237.336476 
L 140.527386 245.524073 
L 155.407386 243.098118 
L 170.287386 242.881515 
L 185.167386 242.145065 
L 200.047386 232.267963 
L 214.927386 218.015478 
L 229.807386 193.79925 
L 244.687386 179.373483 
L 259.567386 165.814128 
L 274.447386 162.391798 
L 289.327386 159.272714 
L 304.207386 160.702294 
L 319.087386 162.825005 
L 333.967386 171.229205 
L 348.847386 172.22558 
L 363.727386 175.214703 
L 378.607386 179.416803 
L 393.487386 180.369857 
L 408.367386 179.026918 
L 423.247386 181.886079 
L 438.127386 188.990661 
L 453.007386 183.575583 
L 467.887386 189.207264 
L 482.767386 188.644096 
" clip-path="url(#p4ba6998045)" style="fill: none; stroke: #ffce02; stroke-width: 1.5; stroke-linecap: square"/>
   </g>
   <g id="FillBetweenPolyCollection_6">
    <path d="M 51.247386 235.776067 
L 51.247386 240.846746 
L 66.127386 242.925269 
L 81.007386 246.823692 
L 95.887386 244.095792 
L 110.767386 246.303844 
L 125.647386 239.286337 
L 140.527386 241.539009 
L 155.407386 240.326248 
L 170.287386 241.152373 
L 185.167386 240.501913 
L 200.047386 235.473689 
L 214.927386 229.53898 
L 229.807386 221.00655 
L 244.687386 210.218632 
L 259.567386 208.91858 
L 274.447386 206.319343 
L 289.327386 204.153095 
L 304.207386 207.446112 
L 319.087386 208.095055 
L 333.967386 209.481532 
L 348.847386 211.430743 
L 363.727386 215.200287 
L 378.607386 217.019104 
L 393.487386 213.380604 
L 408.367386 214.637336 
L 423.247386 215.420356 
L 438.127386 216.586331 
L 453.007386 214.333442 
L 467.887386 216.542577 
L 482.767386 219.272426 
L 482.767386 210.172496 
L 482.767386 210.172496 
L 467.887386 209.741022 
L 453.007386 206.708795 
L 438.127386 209.827447 
L 423.247386 204.542331 
L 408.367386 203.805231 
L 393.487386 205.365856 
L 378.607386 205.322535 
L 363.727386 208.181697 
L 348.847386 200.903182 
L 333.967386 199.863704 
L 319.087386 200.730549 
L 304.207386 197.567278 
L 289.327386 197.524607 
L 274.447386 197.695507 
L 259.567386 203.761693 
L 244.687386 201.076681 
L 229.807386 212.860107 
L 214.927386 220.917743 
L 200.047386 230.101715 
L 185.167386 233.047517 
L 170.287386 231.877644 
L 155.407386 230.924807 
L 140.527386 232.830914 
L 125.647386 233.394299 
L 110.767386 242.49163 
L 95.887386 235.342861 
L 81.007386 237.422684 
L 66.127386 236.469847 
L 51.247386 235.776067 
z
" clip-path="url(#p4ba6998045)" style="fill: #00a6db; fill-opacity: 0.2"/>
   </g>
   <g id="line2d_5">
    <path d="M 51.247386 238.289529 
L 66.127386 239.849072 
L 81.007386 241.84182 
L 95.887386 239.71911 
L 110.767386 244.354416 
L 125.647386 236.383422 
L 140.527386 236.989911 
L 155.407386 235.646971 
L 170.287386 236.470063 
L 185.167386 237.119872 
L 200.047386 232.74449 
L 214.927386 225.076739 
L 229.807386 217.062424 
L 244.687386 205.885704 
L 259.567386 206.448872 
L 274.447386 202.246771 
L 289.327386 200.817191 
L 304.207386 202.463374 
L 319.087386 204.542764 
L 333.967386 204.889329 
L 348.847386 206.535513 
L 363.727386 212.037232 
L 378.607386 211.21414 
L 393.487386 209.437995 
L 408.367386 209.394674 
L 423.247386 210.044483 
L 438.127386 213.120248 
L 453.007386 210.694293 
L 467.887386 212.946965 
L 482.767386 215.762806 
" clip-path="url(#p4ba6998045)" style="fill: none; stroke: #00a6db; stroke-width: 1.5; stroke-linecap: square"/>
   </g>
   <g id="matplotlib.axis_1">
    <g id="xtick_1">
     <g id="line2d_6">
      <defs>
       <path id="m3716969d34" d="M 0 0 
L 0 3.5 
" style="stroke: #000000; stroke-width: 0.8"/>
      </defs>
      <g>
       <use xlink:href="#m3716969d34" x="50.833125" y="284.4" style="stroke: #000000; stroke-width: 0.8"/>
      </g>
     </g>
     <g id="text_1">
      <!-- −60 -->
      <g transform="translate(38.959375 301.442813) scale(0.14 -0.14)">
       <defs>
        <path id="Helvetica-2212" d="M 3547 1894 
L 3547 1369 
L 288 1369 
L 288 1894 
L 3547 1894 
z
" transform="scale(0.015625)"/>
        <path id="Helvetica-36" d="M 1872 4494 
Q 2622 4494 2917 4105 
Q 3213 3716 3213 3303 
L 2656 3303 
Q 2606 3569 2497 3719 
Q 2294 4000 1881 4000 
Q 1409 4000 1131 3564 
Q 853 3128 822 2316 
Q 1016 2600 1309 2741 
Q 1578 2866 1909 2866 
Q 2472 2866 2890 2506 
Q 3309 2147 3309 1434 
Q 3309 825 2912 354 
Q 2516 -116 1781 -116 
Q 1153 -116 697 361 
Q 241 838 241 1966 
Q 241 2800 444 3381 
Q 834 4494 1872 4494 
z
M 1831 384 
Q 2275 384 2495 682 
Q 2716 981 2716 1388 
Q 2716 1731 2519 2042 
Q 2322 2353 1803 2353 
Q 1441 2353 1167 2112 
Q 894 1872 894 1388 
Q 894 963 1142 673 
Q 1391 384 1831 384 
z
" transform="scale(0.015625)"/>
        <path id="Helvetica-30" d="M 1731 4475 
Q 2600 4475 2988 3759 
Q 3288 3206 3288 2244 
Q 3288 1331 3016 734 
Q 2622 -122 1728 -122 
Q 922 -122 528 578 
Q 200 1163 200 2147 
Q 200 2909 397 3456 
Q 766 4475 1731 4475 
z
M 1725 391 
Q 2163 391 2422 778 
Q 2681 1166 2681 2222 
Q 2681 2984 2493 3476 
Q 2306 3969 1766 3969 
Q 1269 3969 1039 3501 
Q 809 3034 809 2125 
Q 809 1441 956 1025 
Q 1181 391 1725 391 
z
" transform="scale(0.015625)"/>
       </defs>
       <use xlink:href="#Helvetica-2212"/>
       <use xlink:href="#Helvetica-36" transform="translate(58.398438 0)"/>
       <use xlink:href="#Helvetica-30" transform="translate(114.013672 0)"/>
      </g>
     </g>
    </g>
    <g id="xtick_2">
     <g id="line2d_7">
      <g>
       <use xlink:href="#m3716969d34" x="140.113125" y="284.4" style="stroke: #000000; stroke-width: 0.8"/>
      </g>
     </g>
     <g id="text_2">
      <!-- 0 -->
      <g transform="translate(136.220469 301.442813) scale(0.14 -0.14)">
       <use xlink:href="#Helvetica-30"/>
      </g>
     </g>
    </g>
    <g id="xtick_3">
     <g id="line2d_8">
      <g>
       <use xlink:href="#m3716969d34" x="229.393125" y="284.4" style="stroke: #000000; stroke-width: 0.8"/>
      </g>
     </g>
     <g id="text_3">
      <!-- 60 -->
      <g transform="translate(221.607813 301.442813) scale(0.14 -0.14)">
       <use xlink:href="#Helvetica-36"/>
       <use xlink:href="#Helvetica-30" transform="translate(55.615234 0)"/>
      </g>
     </g>
    </g>
    <g id="xtick_4">
     <g id="line2d_9">
      <g>
       <use xlink:href="#m3716969d34" x="318.673125" y="284.4" style="stroke: #000000; stroke-width: 0.8"/>
      </g>
     </g>
     <g id="text_4">
      <!-- 120 -->
      <g transform="translate(306.995156 301.442813) scale(0.14 -0.14)">
       <defs>
        <path id="Helvetica-31" d="M 613 3169 
L 613 3600 
Q 1222 3659 1462 3798 
Q 1703 3938 1822 4456 
L 2266 4456 
L 2266 0 
L 1666 0 
L 1666 3169 
L 613 3169 
z
" transform="scale(0.015625)"/>
        <path id="Helvetica-32" d="M 200 0 
Q 231 578 439 1006 
Q 647 1434 1250 1784 
L 1850 2131 
Q 2253 2366 2416 2531 
Q 2672 2791 2672 3125 
Q 2672 3516 2437 3745 
Q 2203 3975 1813 3975 
Q 1234 3975 1013 3538 
Q 894 3303 881 2888 
L 309 2888 
Q 319 3472 525 3841 
Q 891 4491 1816 4491 
Q 2584 4491 2939 4075 
Q 3294 3659 3294 3150 
Q 3294 2613 2916 2231 
Q 2697 2009 2131 1694 
L 1703 1456 
Q 1397 1288 1222 1134 
Q 909 863 828 531 
L 3272 531 
L 3272 0 
L 200 0 
z
" transform="scale(0.015625)"/>
       </defs>
       <use xlink:href="#Helvetica-31"/>
       <use xlink:href="#Helvetica-32" transform="translate(55.615234 0)"/>
       <use xlink:href="#Helvetica-30" transform="translate(111.230469 0)"/>
      </g>
     </g>
    </g>
    <g id="xtick_5">
     <g id="line2d_10">
      <g>
       <use xlink:href="#m3716969d34" x="407.953125" y="284.4" style="stroke: #000000; stroke-width: 0.8"/>
      </g>
     </g>
     <g id="text_5">
      <!-- 180 -->
      <g transform="translate(396.275156 301.442813) scale(0.14 -0.14)">
       <defs>
        <path id="Helvetica-38" d="M 1741 2600 
Q 2113 2600 2322 2808 
Q 2531 3016 2531 3303 
Q 2531 3553 2331 3762 
Q 2131 3972 1722 3972 
Q 1316 3972 1134 3762 
Q 953 3553 953 3272 
Q 953 2956 1187 2778 
Q 1422 2600 1741 2600 
z
M 1775 384 
Q 2166 384 2423 595 
Q 2681 806 2681 1225 
Q 2681 1659 2415 1884 
Q 2150 2109 1734 2109 
Q 1331 2109 1076 1879 
Q 822 1650 822 1244 
Q 822 894 1055 639 
Q 1288 384 1775 384 
z
M 975 2384 
Q 741 2484 609 2619 
Q 363 2869 363 3269 
Q 363 3769 725 4128 
Q 1088 4488 1753 4488 
Q 2397 4488 2762 4148 
Q 3128 3809 3128 3356 
Q 3128 2938 2916 2678 
Q 2797 2531 2547 2391 
Q 2825 2263 2984 2097 
Q 3281 1784 3281 1284 
Q 3281 694 2884 283 
Q 2488 -128 1763 -128 
Q 1109 -128 657 226 
Q 206 581 206 1256 
Q 206 1653 400 1942 
Q 594 2231 975 2384 
z
" transform="scale(0.015625)"/>
       </defs>
       <use xlink:href="#Helvetica-31"/>
       <use xlink:href="#Helvetica-38" transform="translate(55.615234 0)"/>
       <use xlink:href="#Helvetica-30" transform="translate(111.230469 0)"/>
      </g>
     </g>
    </g>
    <g id="xtick_6">
     <g id="line2d_11">
      <g>
       <use xlink:href="#m3716969d34" x="497.233125" y="284.4" style="stroke: #000000; stroke-width: 0.8"/>
      </g>
     </g>
     <g id="text_6">
      <!-- 240 -->
      <g transform="translate(485.555156 301.442813) scale(0.14 -0.14)">
       <defs>
        <path id="Helvetica-34" d="M 2116 1584 
L 2116 3613 
L 681 1584 
L 2116 1584 
z
M 2125 0 
L 2125 1094 
L 163 1094 
L 163 1644 
L 2213 4488 
L 2688 4488 
L 2688 1584 
L 3347 1584 
L 3347 1094 
L 2688 1094 
L 2688 0 
L 2125 0 
z
" transform="scale(0.015625)"/>
       </defs>
       <use xlink:href="#Helvetica-32"/>
       <use xlink:href="#Helvetica-34" transform="translate(55.615234 0)"/>
       <use xlink:href="#Helvetica-30" transform="translate(111.230469 0)"/>
      </g>
     </g>
    </g>
    <g id="text_7">
     <!-- Time (s) -->
     <g transform="translate(248.372656 318.506562) scale(0.14 -0.14)">
      <defs>
       <path id="Helvetica-54" d="M 3828 4591 
L 3828 4044 
L 2281 4044 
L 2281 0 
L 1650 0 
L 1650 4044 
L 103 4044 
L 103 4591 
L 3828 4591 
z
" transform="scale(0.015625)"/>
       <path id="Helvetica-69" d="M 413 3331 
L 984 3331 
L 984 0 
L 413 0 
L 413 3331 
z
M 413 4591 
L 984 4591 
L 984 3953 
L 413 3953 
L 413 4591 
z
" transform="scale(0.015625)"/>
       <path id="Helvetica-6d" d="M 413 3347 
L 969 3347 
L 969 2872 
Q 1169 3119 1331 3231 
Q 1609 3422 1963 3422 
Q 2363 3422 2606 3225 
Q 2744 3113 2856 2894 
Q 3044 3163 3297 3292 
Q 3550 3422 3866 3422 
Q 4541 3422 4784 2934 
Q 4916 2672 4916 2228 
L 4916 0 
L 4331 0 
L 4331 2325 
Q 4331 2659 4164 2784 
Q 3997 2909 3756 2909 
Q 3425 2909 3186 2687 
Q 2947 2466 2947 1947 
L 2947 0 
L 2375 0 
L 2375 2184 
Q 2375 2525 2294 2681 
Q 2166 2916 1816 2916 
Q 1497 2916 1236 2669 
Q 975 2422 975 1775 
L 975 0 
L 413 0 
L 413 3347 
z
" transform="scale(0.015625)"/>
       <path id="Helvetica-65" d="M 1806 3422 
Q 2163 3422 2497 3255 
Q 2831 3088 3006 2822 
Q 3175 2569 3231 2231 
Q 3281 2000 3281 1494 
L 828 1494 
Q 844 984 1069 676 
Q 1294 369 1766 369 
Q 2206 369 2469 659 
Q 2619 828 2681 1050 
L 3234 1050 
Q 3213 866 3089 639 
Q 2966 413 2813 269 
Q 2556 19 2178 -69 
Q 1975 -119 1719 -119 
Q 1094 -119 659 336 
Q 225 791 225 1609 
Q 225 2416 662 2919 
Q 1100 3422 1806 3422 
z
M 2703 1941 
Q 2669 2306 2544 2525 
Q 2313 2931 1772 2931 
Q 1384 2931 1121 2651 
Q 859 2372 844 1941 
L 2703 1941 
z
M 1753 3428 
L 1753 3428 
z
" transform="scale(0.015625)"/>
       <path id="Helvetica-20" transform="scale(0.015625)"/>
       <path id="Helvetica-28" d="M 1894 4666 
Q 1403 3713 1256 3263 
Q 1034 2578 1034 1681 
Q 1034 775 1288 25 
Q 1444 -438 1903 -1306 
L 1525 -1306 
Q 1069 -594 959 -397 
Q 850 -200 722 138 
Q 547 600 478 1125 
Q 444 1397 444 1644 
Q 444 2569 734 3291 
Q 919 3750 1503 4666 
L 1894 4666 
z
" transform="scale(0.015625)"/>
       <path id="Helvetica-73" d="M 747 1050 
Q 772 769 888 619 
Q 1100 347 1625 347 
Q 1938 347 2175 483 
Q 2413 619 2413 903 
Q 2413 1119 2222 1231 
Q 2100 1300 1741 1391 
L 1294 1503 
Q 866 1609 663 1741 
Q 300 1969 300 2372 
Q 300 2847 642 3140 
Q 984 3434 1563 3434 
Q 2319 3434 2653 2991 
Q 2863 2709 2856 2384 
L 2325 2384 
Q 2309 2575 2191 2731 
Q 1997 2953 1519 2953 
Q 1200 2953 1036 2831 
Q 872 2709 872 2509 
Q 872 2291 1088 2159 
Q 1213 2081 1456 2022 
L 1828 1931 
Q 2434 1784 2641 1647 
Q 2969 1431 2969 969 
Q 2969 522 2630 197 
Q 2291 -128 1597 -128 
Q 850 -128 539 211 
Q 228 550 206 1050 
L 747 1050 
z
M 1578 3428 
L 1578 3428 
z
" transform="scale(0.015625)"/>
       <path id="Helvetica-29" d="M 222 -1306 
Q 719 -338 863 106 
Q 1081 778 1081 1681 
Q 1081 2584 828 3334 
Q 672 3797 213 4666 
L 591 4666 
Q 1072 3897 1173 3717 
Q 1275 3538 1394 3222 
Q 1544 2831 1608 2450 
Q 1672 2069 1672 1716 
Q 1672 791 1378 66 
Q 1194 -400 613 -1306 
L 222 -1306 
z
" transform="scale(0.015625)"/>
      </defs>
      <use xlink:href="#Helvetica-54"/>
      <use xlink:href="#Helvetica-69" transform="translate(61.083984 0)"/>
      <use xlink:href="#Helvetica-6d" transform="translate(83.300781 0)"/>
      <use xlink:href="#Helvetica-65" transform="translate(166.601562 0)"/>
      <use xlink:href="#Helvetica-20" transform="translate(222.216797 0)"/>
      <use xlink:href="#Helvetica-28" transform="translate(250 0)"/>
      <use xlink:href="#Helvetica-73" transform="translate(283.300781 0)"/>
      <use xlink:href="#Helvetica-29" transform="translate(333.300781 0)"/>
     </g>
    </g>
   </g>
   <g id="matplotlib.axis_2">
    <g id="ytick_1">
     <g id="line2d_12">
      <path d="M 50.833125 268.094118 
L 497.233125 268.094118 
" clip-path="url(#p4ba6998045)" style="fill: none; stroke: #b0b0b0; stroke-width: 0.8; stroke-linecap: square"/>
     </g>
     <g id="line2d_13">
      <defs>
       <path id="mf70a09b792" d="M 0 0 
L -3.5 0 
" style="stroke: #000000; stroke-width: 0.8"/>
      </defs>
      <g>
       <use xlink:href="#mf70a09b792" x="50.833125" y="268.094118" style="stroke: #000000; stroke-width: 0.8"/>
      </g>
     </g>
     <g id="text_8">
      <!-- 0.4 -->
      <g transform="translate(24.373125 273.115524) scale(0.14 -0.14)">
       <defs>
        <path id="Helvetica-2e" d="M 547 681 
L 1200 681 
L 1200 0 
L 547 0 
L 547 681 
z
" transform="scale(0.015625)"/>
       </defs>
       <use xlink:href="#Helvetica-30"/>
       <use xlink:href="#Helvetica-2e" transform="translate(55.615234 0)"/>
       <use xlink:href="#Helvetica-34" transform="translate(83.398438 0)"/>
      </g>
     </g>
    </g>
    <g id="ytick_2">
     <g id="line2d_14">
      <path d="M 50.833125 227.329412 
L 497.233125 227.329412 
" clip-path="url(#p4ba6998045)" style="fill: none; stroke: #b0b0b0; stroke-width: 0.8; stroke-linecap: square"/>
     </g>
     <g id="line2d_15">
      <g>
       <use xlink:href="#mf70a09b792" x="50.833125" y="227.329412" style="stroke: #000000; stroke-width: 0.8"/>
      </g>
     </g>
     <g id="text_9">
      <!-- 0.5 -->
      <g transform="translate(24.373125 232.350818) scale(0.14 -0.14)">
       <defs>
        <path id="Helvetica-35" d="M 791 1141 
Q 847 659 1238 475 
Q 1438 381 1700 381 
Q 2200 381 2440 700 
Q 2681 1019 2681 1406 
Q 2681 1875 2395 2131 
Q 2109 2388 1709 2388 
Q 1419 2388 1211 2275 
Q 1003 2163 856 1963 
L 369 1991 
L 709 4400 
L 3034 4400 
L 3034 3856 
L 1131 3856 
L 941 2613 
Q 1097 2731 1238 2791 
Q 1488 2894 1816 2894 
Q 2431 2894 2859 2497 
Q 3288 2100 3288 1491 
Q 3288 856 2895 371 
Q 2503 -113 1644 -113 
Q 1097 -113 676 195 
Q 256 503 206 1141 
L 791 1141 
z
" transform="scale(0.015625)"/>
       </defs>
       <use xlink:href="#Helvetica-30"/>
       <use xlink:href="#Helvetica-2e" transform="translate(55.615234 0)"/>
       <use xlink:href="#Helvetica-35" transform="translate(83.398438 0)"/>
      </g>
     </g>
    </g>
    <g id="ytick_3">
     <g id="line2d_16">
      <path d="M 50.833125 186.564706 
L 497.233125 186.564706 
" clip-path="url(#p4ba6998045)" style="fill: none; stroke: #b0b0b0; stroke-width: 0.8; stroke-linecap: square"/>
     </g>
     <g id="line2d_17">
      <g>
       <use xlink:href="#mf70a09b792" x="50.833125" y="186.564706" style="stroke: #000000; stroke-width: 0.8"/>
      </g>
     </g>
     <g id="text_10">
      <!-- 0.6 -->
      <g transform="translate(24.373125 191.586112) scale(0.14 -0.14)">
       <use xlink:href="#Helvetica-30"/>
       <use xlink:href="#Helvetica-2e" transform="translate(55.615234 0)"/>
       <use xlink:href="#Helvetica-36" transform="translate(83.398438 0)"/>
      </g>
     </g>
    </g>
    <g id="ytick_4">
     <g id="line2d_18">
      <path d="M 50.833125 145.8 
L 497.233125 145.8 
" clip-path="url(#p4ba6998045)" style="fill: none; stroke: #b0b0b0; stroke-width: 0.8; stroke-linecap: square"/>
     </g>
     <g id="line2d_19">
      <g>
       <use xlink:href="#mf70a09b792" x="50.833125" y="145.8" style="stroke: #000000; stroke-width: 0.8"/>
      </g>
     </g>
     <g id="text_11">
      <!-- 0.7 -->
      <g transform="translate(24.373125 150.821406) scale(0.14 -0.14)">
       <defs>
        <path id="Helvetica-37" d="M 3347 4400 
L 3347 3909 
Q 3131 3700 2773 3181 
Q 2416 2663 2141 2063 
Q 1869 1478 1728 997 
Q 1638 688 1494 0 
L 872 0 
Q 1084 1281 1809 2550 
Q 2238 3294 2709 3834 
L 234 3834 
L 234 4400 
L 3347 4400 
z
" transform="scale(0.015625)"/>
       </defs>
       <use xlink:href="#Helvetica-30"/>
       <use xlink:href="#Helvetica-2e" transform="translate(55.615234 0)"/>
       <use xlink:href="#Helvetica-37" transform="translate(83.398438 0)"/>
      </g>
     </g>
    </g>
    <g id="ytick_5">
     <g id="line2d_20">
      <path d="M 50.833125 105.035294 
L 497.233125 105.035294 
" clip-path="url(#p4ba6998045)" style="fill: none; stroke: #b0b0b0; stroke-width: 0.8; stroke-linecap: square"/>
     </g>
     <g id="line2d_21">
      <g>
       <use xlink:href="#mf70a09b792" x="50.833125" y="105.035294" style="stroke: #000000; stroke-width: 0.8"/>
      </g>
     </g>
     <g id="text_12">
      <!-- 0.8 -->
      <g transform="translate(24.373125 110.0567) scale(0.14 -0.14)">
       <use xlink:href="#Helvetica-30"/>
       <use xlink:href="#Helvetica-2e" transform="translate(55.615234 0)"/>
       <use xlink:href="#Helvetica-38" transform="translate(83.398438 0)"/>
      </g>
     </g>
    </g>
    <g id="ytick_6">
     <g id="line2d_22">
      <path d="M 50.833125 64.270588 
L 497.233125 64.270588 
" clip-path="url(#p4ba6998045)" style="fill: none; stroke: #b0b0b0; stroke-width: 0.8; stroke-linecap: square"/>
     </g>
     <g id="line2d_23">
      <g>
       <use xlink:href="#mf70a09b792" x="50.833125" y="64.270588" style="stroke: #000000; stroke-width: 0.8"/>
      </g>
     </g>
     <g id="text_13">
      <!-- 0.9 -->
      <g transform="translate(24.373125 69.291994) scale(0.14 -0.14)">
       <defs>
        <path id="Helvetica-39" d="M 850 1081 
Q 875 616 1209 438 
Q 1381 344 1597 344 
Q 2000 344 2284 680 
Q 2569 1016 2688 2044 
Q 2500 1747 2223 1626 
Q 1947 1506 1628 1506 
Q 981 1506 604 1909 
Q 228 2313 228 2947 
Q 228 3556 600 4018 
Q 972 4481 1697 4481 
Q 2675 4481 3047 3600 
Q 3253 3116 3253 2388 
Q 3253 1566 3006 931 
Q 2597 -125 1619 -125 
Q 963 -125 622 219 
Q 281 563 281 1081 
L 850 1081 
z
M 1703 2000 
Q 2038 2000 2314 2220 
Q 2591 2441 2591 2991 
Q 2591 3484 2342 3726 
Q 2094 3969 1709 3969 
Q 1297 3969 1055 3692 
Q 813 3416 813 2953 
Q 813 2516 1025 2258 
Q 1238 2000 1703 2000 
z
" transform="scale(0.015625)"/>
       </defs>
       <use xlink:href="#Helvetica-30"/>
       <use xlink:href="#Helvetica-2e" transform="translate(55.615234 0)"/>
       <use xlink:href="#Helvetica-39" transform="translate(83.398438 0)"/>
      </g>
     </g>
    </g>
    <g id="ytick_7">
     <g id="line2d_24">
      <path d="M 50.833125 23.505882 
L 497.233125 23.505882 
" clip-path="url(#p4ba6998045)" style="fill: none; stroke: #b0b0b0; stroke-width: 0.8; stroke-linecap: square"/>
     </g>
     <g id="line2d_25">
      <g>
       <use xlink:href="#mf70a09b792" x="50.833125" y="23.505882" style="stroke: #000000; stroke-width: 0.8"/>
      </g>
     </g>
     <g id="text_14">
      <!-- 1.0 -->
      <g transform="translate(24.373125 28.527289) scale(0.14 -0.14)">
       <use xlink:href="#Helvetica-31"/>
       <use xlink:href="#Helvetica-2e" transform="translate(55.615234 0)"/>
       <use xlink:href="#Helvetica-30" transform="translate(83.398438 0)"/>
      </g>
     </g>
    </g>
    <g id="text_15">
     <!-- Decoding accuracy -->
     <g transform="translate(17.275625 205.327344) rotate(-90) scale(0.14 -0.14)">
      <defs>
       <path id="Helvetica-44" d="M 2250 531 
Q 2566 531 2769 597 
Q 3131 719 3363 1066 
Q 3547 1344 3628 1778 
Q 3675 2038 3675 2259 
Q 3675 3113 3336 3584 
Q 2997 4056 2244 4056 
L 1141 4056 
L 1141 531 
L 2250 531 
z
M 516 4591 
L 2375 4591 
Q 3322 4591 3844 3919 
Q 4309 3313 4309 2366 
Q 4309 1634 4034 1044 
Q 3550 0 2369 0 
L 516 0 
L 516 4591 
z
" transform="scale(0.015625)"/>
       <path id="Helvetica-63" d="M 1703 3444 
Q 2269 3444 2623 3169 
Q 2978 2894 3050 2222 
L 2503 2222 
Q 2453 2531 2275 2736 
Q 2097 2941 1703 2941 
Q 1166 2941 934 2416 
Q 784 2075 784 1575 
Q 784 1072 996 728 
Q 1209 384 1666 384 
Q 2016 384 2220 598 
Q 2425 813 2503 1184 
L 3050 1184 
Q 2956 519 2581 211 
Q 2206 -97 1622 -97 
Q 966 -97 575 383 
Q 184 863 184 1581 
Q 184 2463 612 2953 
Q 1041 3444 1703 3444 
z
M 1616 3428 
L 1616 3428 
z
" transform="scale(0.015625)"/>
       <path id="Helvetica-6f" d="M 1741 363 
Q 2300 363 2508 786 
Q 2716 1209 2716 1728 
Q 2716 2197 2566 2491 
Q 2328 2953 1747 2953 
Q 1231 2953 997 2559 
Q 763 2166 763 1609 
Q 763 1075 997 719 
Q 1231 363 1741 363 
z
M 1763 3444 
Q 2409 3444 2856 3012 
Q 3303 2581 3303 1744 
Q 3303 934 2909 406 
Q 2516 -122 1688 -122 
Q 997 -122 590 345 
Q 184 813 184 1600 
Q 184 2444 612 2944 
Q 1041 3444 1763 3444 
z
M 1744 3428 
L 1744 3428 
z
" transform="scale(0.015625)"/>
       <path id="Helvetica-64" d="M 769 1634 
Q 769 1097 997 734 
Q 1225 372 1728 372 
Q 2119 372 2370 708 
Q 2622 1044 2622 1672 
Q 2622 2306 2362 2611 
Q 2103 2916 1722 2916 
Q 1297 2916 1033 2591 
Q 769 2266 769 1634 
z
M 1616 3406 
Q 2000 3406 2259 3244 
Q 2409 3150 2600 2916 
L 2600 4606 
L 3141 4606 
L 3141 0 
L 2634 0 
L 2634 466 
Q 2438 156 2169 18 
Q 1900 -119 1553 -119 
Q 994 -119 584 351 
Q 175 822 175 1603 
Q 175 2334 548 2870 
Q 922 3406 1616 3406 
z
" transform="scale(0.015625)"/>
       <path id="Helvetica-6e" d="M 413 3347 
L 947 3347 
L 947 2872 
Q 1184 3166 1450 3294 
Q 1716 3422 2041 3422 
Q 2753 3422 3003 2925 
Q 3141 2653 3141 2147 
L 3141 0 
L 2569 0 
L 2569 2109 
Q 2569 2416 2478 2603 
Q 2328 2916 1934 2916 
Q 1734 2916 1606 2875 
Q 1375 2806 1200 2600 
Q 1059 2434 1017 2257 
Q 975 2081 975 1753 
L 975 0 
L 413 0 
L 413 3347 
z
M 1734 3428 
L 1734 3428 
z
" transform="scale(0.015625)"/>
       <path id="Helvetica-67" d="M 1594 3406 
Q 1988 3406 2281 3213 
Q 2441 3103 2606 2894 
L 2606 3316 
L 3125 3316 
L 3125 272 
Q 3125 -366 2938 -734 
Q 2588 -1416 1616 -1416 
Q 1075 -1416 706 -1173 
Q 338 -931 294 -416 
L 866 -416 
Q 906 -641 1028 -763 
Q 1219 -950 1628 -950 
Q 2275 -950 2475 -494 
Q 2594 -225 2584 466 
Q 2416 209 2178 84 
Q 1941 -41 1550 -41 
Q 1006 -41 598 345 
Q 191 731 191 1622 
Q 191 2463 602 2934 
Q 1013 3406 1594 3406 
z
M 2606 1688 
Q 2606 2309 2350 2609 
Q 2094 2909 1697 2909 
Q 1103 2909 884 2353 
Q 769 2056 769 1575 
Q 769 1009 998 714 
Q 1228 419 1616 419 
Q 2222 419 2469 966 
Q 2606 1275 2606 1688 
z
M 1659 3428 
L 1659 3428 
z
" transform="scale(0.015625)"/>
       <path id="Helvetica-61" d="M 844 891 
Q 844 647 1022 506 
Q 1200 366 1444 366 
Q 1741 366 2019 503 
Q 2488 731 2488 1250 
L 2488 1703 
Q 2384 1638 2221 1594 
Q 2059 1550 1903 1531 
L 1563 1488 
Q 1256 1447 1103 1359 
Q 844 1213 844 891 
z
M 2206 2028 
Q 2400 2053 2466 2191 
Q 2503 2266 2503 2406 
Q 2503 2694 2298 2823 
Q 2094 2953 1713 2953 
Q 1272 2953 1088 2716 
Q 984 2584 953 2325 
L 428 2325 
Q 444 2944 830 3186 
Q 1216 3428 1725 3428 
Q 2316 3428 2684 3203 
Q 3050 2978 3050 2503 
L 3050 575 
Q 3050 488 3086 434 
Q 3122 381 3238 381 
Q 3275 381 3322 386 
Q 3369 391 3422 400 
L 3422 -16 
Q 3291 -53 3222 -62 
Q 3153 -72 3034 -72 
Q 2744 -72 2613 134 
Q 2544 244 2516 444 
Q 2344 219 2022 53 
Q 1700 -113 1313 -113 
Q 847 -113 551 170 
Q 256 453 256 878 
Q 256 1344 547 1600 
Q 838 1856 1309 1916 
L 2206 2028 
z
M 1741 3428 
L 1741 3428 
z
" transform="scale(0.015625)"/>
       <path id="Helvetica-75" d="M 975 3347 
L 975 1125 
Q 975 869 1056 706 
Q 1206 406 1616 406 
Q 2203 406 2416 931 
Q 2531 1213 2531 1703 
L 2531 3347 
L 3094 3347 
L 3094 0 
L 2563 0 
L 2569 494 
Q 2459 303 2297 172 
Q 1975 -91 1516 -91 
Q 800 -91 541 388 
Q 400 644 400 1072 
L 400 3347 
L 975 3347 
z
M 1747 3428 
L 1747 3428 
z
" transform="scale(0.015625)"/>
       <path id="Helvetica-72" d="M 428 3347 
L 963 3347 
L 963 2769 
Q 1028 2938 1284 3180 
Q 1541 3422 1875 3422 
Q 1891 3422 1928 3419 
Q 1966 3416 2056 3406 
L 2056 2813 
Q 2006 2822 1964 2825 
Q 1922 2828 1872 2828 
Q 1447 2828 1219 2554 
Q 991 2281 991 1925 
L 991 0 
L 428 0 
L 428 3347 
z
" transform="scale(0.015625)"/>
       <path id="Helvetica-79" d="M 2503 3347 
L 3125 3347 
Q 3006 3025 2597 1878 
Q 2291 1016 2084 472 
Q 1597 -809 1397 -1090 
Q 1197 -1372 709 -1372 
Q 591 -1372 527 -1362 
Q 463 -1353 369 -1328 
L 369 -816 
Q 516 -856 581 -865 
Q 647 -875 697 -875 
Q 853 -875 926 -823 
Q 1000 -772 1050 -697 
Q 1066 -672 1162 -440 
Q 1259 -209 1303 -97 
L 66 3347 
L 703 3347 
L 1600 622 
L 2503 3347 
z
M 1597 3428 
L 1597 3428 
z
" transform="scale(0.015625)"/>
      </defs>
      <use xlink:href="#Helvetica-44"/>
      <use xlink:href="#Helvetica-65" transform="translate(72.216797 0)"/>
      <use xlink:href="#Helvetica-63" transform="translate(127.832031 0)"/>
      <use xlink:href="#Helvetica-6f" transform="translate(177.832031 0)"/>
      <use xlink:href="#Helvetica-64" transform="translate(233.447266 0)"/>
      <use xlink:href="#Helvetica-69" transform="translate(289.0625 0)"/>
      <use xlink:href="#Helvetica-6e" transform="translate(311.279297 0)"/>
      <use xlink:href="#Helvetica-67" transform="translate(366.894531 0)"/>
      <use xlink:href="#Helvetica-20" transform="translate(422.509766 0)"/>
      <use xlink:href="#Helvetica-61" transform="translate(450.292969 0)"/>
      <use xlink:href="#Helvetica-63" transform="translate(505.908203 0)"/>
      <use xlink:href="#Helvetica-63" transform="translate(555.908203 0)"/>
      <use xlink:href="#Helvetica-75" transform="translate(605.908203 0)"/>
      <use xlink:href="#Helvetica-72" transform="translate(661.523438 0)"/>
      <use xlink:href="#Helvetica-61" transform="translate(694.824219 0)"/>
      <use xlink:href="#Helvetica-63" transform="translate(750.439453 0)"/>
      <use xlink:href="#Helvetica-79" transform="translate(800.439453 0)"/>
     </g>
    </g>
   </g>
   <g id="line2d_26">
    <path clip-path="url(#p4ba6998045)" style="fill: none; stroke: #000000; stroke-linecap: square"/>
   </g>
   <g id="line2d_27">
    <path d="M 50.833125 284.4 
L 497.233125 284.4 
" clip-path="url(#p4ba6998045)" style="fill: none; stroke: #000000; stroke-linecap: square"/>
   </g>
   <g id="text_16">
    <!-- + Drug -->
    <g style="opacity: 0.5" transform="translate(147.553125 128.890303) scale(0.14 -0.14)">
     <defs>
      <path id="Helvetica-2b" d="M 288 1369 
L 288 1894 
L 1650 1894 
L 1650 3266 
L 2184 3266 
L 2184 1894 
L 3547 1894 
L 3547 1369 
L 2184 1369 
L 2184 0 
L 1650 0 
L 1650 1369 
L 288 1369 
z
" transform="scale(0.015625)"/>
     </defs>
     <use xlink:href="#Helvetica-2b"/>
     <use xlink:href="#Helvetica-20" transform="translate(58.398438 0)"/>
     <use xlink:href="#Helvetica-44" transform="translate(86.181641 0)"/>
     <use xlink:href="#Helvetica-72" transform="translate(158.398438 0)"/>
     <use xlink:href="#Helvetica-75" transform="translate(191.699219 0)"/>
     <use xlink:href="#Helvetica-67" transform="translate(247.314453 0)"/>
    </g>
   </g>
   <g id="legend_1">
    <g id="patch_3">
     <path d="M 59.233125 102.346875 
L 149.655 102.346875 
Q 152.055 102.346875 152.055 99.946875 
L 152.055 15.6 
Q 152.055 13.2 149.655 13.2 
L 59.233125 13.2 
Q 56.833125 13.2 56.833125 15.6 
L 56.833125 99.946875 
Q 56.833125 102.346875 59.233125 102.346875 
z
" style="fill: #f9f4f5; opacity: 0.8; stroke: #cccccc; stroke-linejoin: miter"/>
    </g>
    <g id="line2d_28">
     <path d="M 61.633125 22.408125 
L 73.633125 22.408125 
L 85.633125 22.408125 
" style="fill: none; stroke: #00a6db; stroke-width: 1.5; stroke-linecap: square"/>
    </g>
    <g id="text_17">
     <!-- 4 PCs -->
     <g transform="translate(95.233125 26.608125) scale(0.12 -0.12)">
      <defs>
       <path id="Helvetica-50" d="M 547 4591 
L 2613 4591 
Q 3225 4591 3600 4245 
Q 3975 3900 3975 3275 
Q 3975 2738 3640 2339 
Q 3306 1941 2613 1941 
L 1169 1941 
L 1169 0 
L 547 0 
L 547 4591 
z
M 3347 3272 
Q 3347 3778 2972 3959 
Q 2766 4056 2406 4056 
L 1169 4056 
L 1169 2466 
L 2406 2466 
Q 2825 2466 3086 2644 
Q 3347 2822 3347 3272 
z
" transform="scale(0.015625)"/>
       <path id="Helvetica-43" d="M 2422 4716 
Q 3294 4716 3775 4256 
Q 4256 3797 4309 3213 
L 3703 3213 
Q 3600 3656 3292 3915 
Q 2984 4175 2428 4175 
Q 1750 4175 1333 3698 
Q 916 3222 916 2238 
Q 916 1431 1292 929 
Q 1669 428 2416 428 
Q 3103 428 3463 956 
Q 3653 1234 3747 1688 
L 4353 1688 
Q 4272 963 3816 472 
Q 3269 -119 2341 -119 
Q 1541 -119 997 366 
Q 281 1006 281 2344 
Q 281 3359 819 4009 
Q 1400 4716 2422 4716 
z
M 2297 4716 
L 2297 4716 
z
" transform="scale(0.015625)"/>
      </defs>
      <use xlink:href="#Helvetica-34"/>
      <use xlink:href="#Helvetica-20" transform="translate(55.615234 0)"/>
      <use xlink:href="#Helvetica-50" transform="translate(83.398438 0)"/>
      <use xlink:href="#Helvetica-43" transform="translate(150.097656 0)"/>
      <use xlink:href="#Helvetica-73" transform="translate(222.314453 0)"/>
     </g>
    </g>
    <g id="line2d_29">
     <path d="M 61.633125 39.5175 
L 73.633125 39.5175 
L 85.633125 39.5175 
" style="fill: none; stroke: #ffce02; stroke-width: 1.5; stroke-linecap: square"/>
    </g>
    <g id="text_18">
     <!-- 8 PCs -->
     <g transform="translate(95.233125 43.7175) scale(0.12 -0.12)">
      <use xlink:href="#Helvetica-38"/>
      <use xlink:href="#Helvetica-20" transform="translate(55.615234 0)"/>
      <use xlink:href="#Helvetica-50" transform="translate(83.398438 0)"/>
      <use xlink:href="#Helvetica-43" transform="translate(150.097656 0)"/>
      <use xlink:href="#Helvetica-73" transform="translate(222.314453 0)"/>
     </g>
    </g>
    <g id="line2d_30">
     <path d="M 61.633125 56.626875 
L 73.633125 56.626875 
L 85.633125 56.626875 
" style="fill: none; stroke: #007c35; stroke-width: 1.5; stroke-linecap: square"/>
    </g>
    <g id="text_19">
     <!-- 12 PCs -->
     <g transform="translate(95.233125 60.826875) scale(0.12 -0.12)">
      <use xlink:href="#Helvetica-31"/>
      <use xlink:href="#Helvetica-32" transform="translate(55.615234 0)"/>
      <use xlink:href="#Helvetica-20" transform="translate(111.230469 0)"/>
      <use xlink:href="#Helvetica-50" transform="translate(139.013672 0)"/>
      <use xlink:href="#Helvetica-43" transform="translate(205.712891 0)"/>
      <use xlink:href="#Helvetica-73" transform="translate(277.929688 0)"/>
     </g>
    </g>
    <g id="line2d_31">
     <path d="M 61.633125 73.73625 
L 73.633125 73.73625 
L 85.633125 73.73625 
" style="fill: none; stroke: #f95838; stroke-width: 1.5; stroke-linecap: square"/>
    </g>
    <g id="text_20">
     <!-- 16 PCs -->
     <g transform="translate(95.233125 77.93625) scale(0.12 -0.12)">
      <use xlink:href="#Helvetica-31"/>
      <use xlink:href="#Helvetica-36" transform="translate(55.615234 0)"/>
      <use xlink:href="#Helvetica-20" transform="translate(111.230469 0)"/>
      <use xlink:href="#Helvetica-50" transform="translate(139.013672 0)"/>
      <use xlink:href="#Helvetica-43" transform="translate(205.712891 0)"/>
      <use xlink:href="#Helvetica-73" transform="translate(277.929688 0)"/>
     </g>
    </g>
    <g id="line2d_32">
     <path d="M 61.633125 90.845625 
L 73.633125 90.845625 
L 85.633125 90.845625 
" style="fill: none; stroke: #000000; stroke-width: 1.5; stroke-linecap: square"/>
    </g>
    <g id="text_21">
     <!-- Permuted -->
     <g transform="translate(95.233125 95.045625) scale(0.12 -0.12)">
      <defs>
       <path id="Helvetica-74" d="M 525 4281 
L 1094 4281 
L 1094 3347 
L 1628 3347 
L 1628 2888 
L 1094 2888 
L 1094 703 
Q 1094 528 1213 469 
Q 1278 434 1431 434 
Q 1472 434 1519 436 
Q 1566 438 1628 444 
L 1628 0 
Q 1531 -28 1426 -40 
Q 1322 -53 1200 -53 
Q 806 -53 665 148 
Q 525 350 525 672 
L 525 2888 
L 72 2888 
L 72 3347 
L 525 3347 
L 525 4281 
z
" transform="scale(0.015625)"/>
      </defs>
      <use xlink:href="#Helvetica-50"/>
      <use xlink:href="#Helvetica-65" transform="translate(66.699219 0)"/>
      <use xlink:href="#Helvetica-72" transform="translate(122.314453 0)"/>
      <use xlink:href="#Helvetica-6d" transform="translate(155.615234 0)"/>
      <use xlink:href="#Helvetica-75" transform="translate(238.916016 0)"/>
      <use xlink:href="#Helvetica-74" transform="translate(294.53125 0)"/>
      <use xlink:href="#Helvetica-65" transform="translate(322.314453 0)"/>
      <use xlink:href="#Helvetica-64" transform="translate(377.929688 0)"/>
     </g>
    </g>
   </g>
  </g>
 </g>
 <defs>
  <clipPath id="p4ba6998045">
   <rect x="50.833125" y="7.2" width="446.4" height="277.2"/>
  </clipPath>
 </defs>
</svg>
